<svg
					width="100%"
					height="100%"
					id="svg"
					viewBox="0 0 1440 390"
					xmlns="http://www.w3.org/2000/svg"
					class="transition duration-300 ease-in-out delay-150"
				>
					<defs>
						<linearGradient id="gradient" x1="50%" y1="0%" x2="50%" y2="100%">
							<stop offset="5%" stop-color="#0099ff"></stop>
							<stop offset="95%" stop-color="#0099ff"></stop>
						</linearGradient>
					</defs>
					<path
						d="M 0,400 C 0,400 0,100 0,100 C 69.56937799043064,104.64114832535886 139.13875598086128,109.28229665071771 252,118 C 364.8612440191387,126.71770334928229 521.0143540669856,139.51196172248802 621,136 C 720.9856459330144,132.48803827751198 764.8038277511963,112.66985645933015 839,102 C 913.1961722488037,91.33014354066985 1017.7703349282297,89.8086124401914 1123,91 C 1228.2296650717703,92.1913875598086 1334.1148325358852,96.09569377990431 1440,100 C 1440,100 1440,400 1440,400 Z"
						stroke="none"
						stroke-width="0"
						fill="url(#gradient)"
						fill-opacity="0.4"
						class="transition-all duration-300 ease-in-out delay-150 path-0"
					></path>
					<defs>
						<linearGradient id="gradient" x1="50%" y1="0%" x2="50%" y2="100%">
							<stop offset="5%" stop-color="#0099ff"></stop>
							<stop offset="95%" stop-color="#0099ff"></stop>
						</linearGradient>
					</defs>
					<path
						d="M 0,400 C 0,400 0,200 0,200 C 116.20095693779902,191.04306220095694 232.40191387559804,182.08612440191388 316,190 C 399.59808612440196,197.91387559808612 450.5933014354067,222.69856459330143 556,226 C 661.4066985645933,229.30143540669857 821.2248803827752,211.1196172248804 912,198 C 1002.7751196172248,184.8803827751196 1024.5071770334928,176.82296650717703 1101,178 C 1177.4928229665072,179.17703349282297 1308.7464114832537,189.58851674641147 1440,200 C 1440,200 1440,400 1440,400 Z"
						stroke="none"
						stroke-width="0"
						fill="url(#gradient)"
						fill-opacity="0.53"
						class="transition-all duration-300 ease-in-out delay-150 path-1"
					></path>
					<defs>
						<linearGradient id="gradient" x1="50%" y1="0%" x2="50%" y2="100%">
							<stop offset="5%" stop-color="#0099ff"></stop>
							<stop offset="95%" stop-color="#0099ff"></stop>
						</linearGradient>
					</defs>
					<path
						d="M 0,400 C 0,400 0,300 0,300 C 109.68421052631581,294.00956937799043 219.36842105263162,288.01913875598086 328,281 C 436.6315789473684,273.98086124401914 544.2105263157894,265.933014354067 623,277 C 701.7894736842106,288.066985645933 751.7894736842106,318.2488038277512 830,323 C 908.2105263157894,327.7511961722488 1014.6315789473683,307.0717703349282 1121,299 C 1227.3684210526317,290.9282296650718 1333.6842105263158,295.46411483253587 1440,300 C 1440,300 1440,400 1440,400 Z"
						stroke="none"
						stroke-width="0"
						fill="url(#gradient)"
						fill-opacity="1"
						class="transition-all duration-300 ease-in-out delay-150 path-2"
					></path>
				</svg>